<svg width="16" height="16" viewBox="0 0 16 16" fill="none" xmlns="http://www.w3.org/2000/svg">
<path d="M8.01762 0.25C10.0756 0.255827 12.0472 1.07784 13.4997 2.53567C14.9523 3.99349 15.7672 5.96804 15.7656 8.026C15.7587 10.0372 14.9703 11.9669 13.5668 13.4074C12.1634 14.848 10.2549 15.6866 8.24463 15.746L7.99862 15.75C5.98707 15.7457 4.05598 14.9595 2.61349 13.5575C1.17099 12.1556 0.330135 10.2476 0.268625 8.237L0.265625 7.992C0.267746 5.93761 1.08547 3.96812 2.53908 2.51639C3.99269 1.06465 5.96324 0.249469 8.01762 0.25ZM9.96663 8.75H6.06362C6.21863 11.647 7.23962 14.093 7.94963 14.243L8.01762 14.25C8.69763 14.248 9.73763 11.885 9.94963 9.02L9.96663 8.75ZM14.2216 8.75H11.4696C11.3786 10.71 10.9396 12.533 10.2816 13.826C11.2965 13.4306 12.1906 12.7771 12.8755 11.9302C13.5604 11.0832 14.0123 10.0722 14.1866 8.997L14.2216 8.75ZM4.56063 8.75H1.81062C1.94665 9.87243 2.38427 10.937 3.07696 11.8306C3.76966 12.7242 4.69155 13.4134 5.74463 13.825C5.12963 12.617 4.70862 10.95 4.58262 9.139L4.56063 8.749V8.75ZM5.74862 2.174L5.63363 2.22C4.60742 2.64383 3.71247 3.33309 3.04064 4.21704C2.3688 5.10099 1.94427 6.14779 1.81062 7.25H4.56063C4.64563 5.42 5.03163 3.71 5.61963 2.44L5.74862 2.174ZM8.01062 1.75C7.30862 1.752 6.22662 4.262 6.06362 7.25H9.96762C9.81162 4.347 8.78963 1.907 8.07563 1.756L8.01062 1.749V1.75ZM10.2906 2.182L10.3136 2.232C10.9566 3.52 11.3826 5.316 11.4706 7.25H14.2186C14.08 6.13 13.6419 5.06812 12.9504 4.17621C12.2589 3.2843 11.3407 2.59538 10.2906 2.182Z" fill="#222222"/>
</svg>
